<svg xmlns="http://www.w3.org/2000/svg" viewBox="0 0 24 24"><path fill="#303c42" d="M20 12H4c-1.654 0-3 1.346-3 3v5c0 1.654 1.346 3 3 3h16c1.654 0 3-1.346 3-3v-5c0-1.654-1.346-3-3-3z"/><path fill="#e53935" d="M22 20c0 1.103-.897 2-2 2H4c-1.103 0-2-.897-2-2v-5c0-1.103.897-2 2-2h16c1.103 0 2 .897 2 2v5z"/><path fill="#fff" d="M2.625 20v-5c0-1.103.841-2 1.875-2H4c-1.103 0-2 .897-2 2v5c0 1.103.897 2 2 2h.5c-1.034 0-1.875-.897-1.875-2z" opacity=".2"/><path d="M20 13h-.5c1.034 0 1.875.897 1.875 2v5c0 1.103-.841 2-1.875 2h.5c1.103 0 2-.897 2-2v-5c0-1.103-.897-2-2-2z" opacity=".1"/><path fill="#303c42" d="M7.5 15a.5.5 0 0 0 0-1h-4a.5.5 0 0 0 0 1H5v5.5a.5.5 0 0 0 1 0V15h1.5z"/><path fill="#303c42" d="M10.5 16a.5.5 0 0 0-.5.5v2.75a.75.75 0 0 1-.75.75h-.5a.75.75 0 0 1-.75-.75V16.5a.5.5 0 0 0-1 0v2.75c0 .965.785 1.75 1.75 1.75h.5c.307 0 .592-.086.843-.226A.49.49 0 0 0 10.5 21a.5.5 0 0 0 .5-.5v-4a.5.5 0 0 0-.5-.5zm8.75 0h-.5c-.965 0-1.75.785-1.75 1.75v1.5c0 .965.785 1.75 1.75 1.75h.75c.522 0 1-.278 1.276-.745a.5.5 0 0 0-.859-.511c-.046.077-.178.256-.417.256h-.75a.75.75 0 0 1-.75-.75V19h2.5a.5.5 0 0 0 .5-.5v-.75c0-.965-.785-1.75-1.75-1.75zm.75 2h-2v-.25a.75.75 0 0 1 .75-.75h.5a.75.75 0 0 1 .75.75V18zM6 6.597V10.5a.5.5 0 0 0 1 0V6.597l1.964-4.911a.5.5 0 1 0-.929-.371L6.5 5.154 4.964 1.315a.5.5 0 0 0-.928.371L6 6.597zM9 9c0 1.103.897 2 2 2s2-.897 2-2V6c0-1.103-.897-2-2-2s-2 .897-2 2v3zm1-3c0-.551.449-1 1-1s1 .449 1 1v3c0 .551-.449 1-1 1s-1-.449-1-1V6zm6 5c.383 0 .738-.114 1.042-.301A.5.5 0 0 0 18 10.5v-6a.5.5 0 0 0-1 0V9c0 .551-.449 1-1 1s-1-.449-1-1V4.5a.5.5 0 0 0-1 0V9c0 1.103.897 2 2 2zm-1.75 5h-.5a1.72 1.72 0 0 0-.75.176V14.5a.5.5 0 0 0-1 0v6a.5.5 0 0 0 .5.5.49.49 0 0 0 .407-.226c.251.14.536.226.843.226h.5c.965 0 1.75-.785 1.75-1.75v-1.5c0-.965-.785-1.75-1.75-1.75zm.75 3.25a.75.75 0 0 1-.75.75h-.5a.75.75 0 0 1-.75-.75v-1.5a.75.75 0 0 1 .75-.75h.5a.75.75 0 0 1 .75.75v1.5z"/><linearGradient id="a" x1=".518" x2="23.507" y1="8.858" y2="19.578" gradientUnits="userSpaceOnUse"><stop offset="0" stop-color="#fff" stop-opacity=".2"/><stop offset="1" stop-color="#fff" stop-opacity="0"/></linearGradient><path fill="url(#a)" d="M20 12H4c-1.654 0-3 1.346-3 3v5c0 1.654 1.346 3 3 3h16c1.654 0 3-1.346 3-3v-5c0-1.654-1.346-3-3-3zM6 6.597V10.5a.5.5 0 0 0 1 0V6.597l1.964-4.911a.5.5 0 1 0-.929-.371L6.5 5.154 4.964 1.315a.5.5 0 0 0-.928.371L6 6.597zM9 9c0 1.103.897 2 2 2s2-.897 2-2V6c0-1.103-.897-2-2-2s-2 .897-2 2v3zm1-3c0-.551.449-1 1-1s1 .449 1 1v3c0 .551-.449 1-1 1s-1-.449-1-1V6zm6 5c.383 0 .738-.114 1.042-.301A.5.5 0 0 0 18 10.5v-6a.5.5 0 0 0-1 0V9c0 .551-.449 1-1 1s-1-.449-1-1V4.5a.5.5 0 0 0-1 0V9c0 1.103.897 2 2 2z"/></svg>